<svg xmlns="http://www.w3.org/2000/svg" xmlns:xlink="http://www.w3.org/1999/xlink" width="1080" zoomAndPan="magnify" viewBox="0 0 810 1012.49997" height="1350" preserveAspectRatio="xMidYMid meet" version="1.0"><defs><g/><clipPath id="7c10123925"><path d="M 0.199219 0 L 809.800781 0 L 809.800781 1012 L 0.199219 1012 Z M 0.199219 0 " clip-rule="nonzero"/></clipPath><clipPath id="5d92a4f18d"><rect x="0" width="220" y="0" height="67"/></clipPath></defs><g clip-path="url(#7c10123925)"><path fill="#ffffff" d="M 0.199219 0 L 809.800781 0 L 809.800781 1012 L 0.199219 1012 Z M 0.199219 0 " fill-opacity="1" fill-rule="nonzero"/><path fill="#ffffff" d="M 0.199219 0 L 809.800781 0 L 809.800781 1012 L 0.199219 1012 Z M 0.199219 0 " fill-opacity="1" fill-rule="nonzero"/></g><path fill="#b66a91" d="M 320.980469 535.261719 C 297.3125 535.667969 277.933594 515.789062 277.933594 492.113281 L 277.933594 453.230469 C 277.933594 451.800781 279.09375 450.640625 280.527344 450.640625 L 294 450.640625 C 295.429688 450.640625 296.589844 451.800781 296.589844 453.230469 L 296.589844 492.375 C 296.589844 505.1875 306.53125 516.117188 319.339844 516.601562 C 332.800781 517.109375 343.910156 506.304688 343.910156 492.957031 L 343.910156 453.230469 C 343.910156 451.800781 345.070312 450.640625 346.503906 450.640625 L 359.972656 450.640625 C 361.40625 450.640625 362.5625 451.800781 362.5625 453.230469 L 362.5625 492.957031 C 362.5625 516.042969 343.976562 534.871094 320.980469 535.261719 " fill-opacity="1" fill-rule="nonzero"/><path fill="#b66a91" d="M 629.542969 535.269531 L 607.160156 535.269531 C 583.484375 535.269531 563.601562 515.894531 564.007812 492.222656 C 564.398438 469.226562 583.226562 450.640625 606.316406 450.640625 L 629.542969 450.640625 C 630.976562 450.640625 632.136719 451.800781 632.136719 453.230469 L 632.136719 466.703125 C 632.136719 468.132812 630.976562 469.292969 629.542969 469.292969 L 606.894531 469.292969 C 594.082031 469.292969 583.15625 479.238281 582.667969 492.042969 C 582.160156 505.503906 592.964844 516.617188 606.316406 516.617188 L 629.542969 516.617188 C 630.976562 516.617188 632.136719 517.777344 632.136719 519.207031 L 632.136719 532.679688 C 632.136719 534.109375 630.976562 535.269531 629.542969 535.269531 " fill-opacity="1" fill-rule="nonzero"/><path fill="#b66a91" d="M 392.582031 469.292969 L 392.582031 492.398438 C 392.582031 504.910156 402.070312 515.6875 414.554688 516.558594 C 428.929688 517.5625 440.851562 505.640625 439.847656 491.265625 C 438.972656 478.78125 428.199219 469.292969 415.6875 469.292969 Z M 415.191406 535.253906 C 392.484375 534.699219 373.929688 514.800781 373.929688 492.085938 L 373.929688 416.757812 C 373.929688 415.328125 375.089844 414.167969 376.519531 414.167969 L 389.992188 414.167969 C 391.421875 414.167969 392.582031 415.328125 392.582031 416.757812 L 392.582031 450.640625 L 415.375 450.640625 C 438.089844 450.640625 457.988281 469.191406 458.542969 491.902344 C 459.136719 516.066406 439.355469 535.84375 415.191406 535.253906 " fill-opacity="1" fill-rule="nonzero"/><path fill="#b66a91" d="M 263.980469 535.269531 L 183.75 535.269531 C 182.210938 535.269531 181.007812 533.929688 181.175781 532.394531 L 182 524.925781 C 182.921875 516.542969 185.695312 509.234375 190.246094 503.199219 C 195.90625 495.691406 201.433594 491.394531 221.042969 484.199219 C 241.355469 476.75 242.242188 473.359375 245.0625 469.34375 C 245.046875 469.3125 245.050781 469.324219 245.039062 469.292969 L 184.535156 469.292969 C 183.101562 469.292969 181.941406 468.132812 181.941406 466.703125 L 181.941406 453.230469 C 181.941406 451.800781 183.101562 450.640625 184.535156 450.640625 L 264.511719 450.640625 C 266.019531 450.640625 267.210938 451.925781 267.097656 453.429688 L 266.542969 460.679688 C 265.964844 468.242188 263.722656 474.984375 259.878906 480.71875 C 254.398438 488.894531 248.148438 494.125 227.46875 501.710938 C 209.855469 508.171875 207.875 510.792969 205.136719 514.429688 C 204.617188 515.117188 204.136719 515.847656 203.699219 516.617188 L 263.980469 516.617188 C 265.410156 516.617188 266.570312 517.777344 266.570312 519.207031 L 266.570312 532.679688 C 266.570312 534.109375 265.410156 535.269531 263.980469 535.269531 " fill-opacity="1" fill-rule="nonzero"/><path fill="#b66a91" d="M 509.253906 506.894531 C 506.753906 511.632812 503.316406 515.703125 501.253906 515.316406 C 499.730469 515.035156 499.890625 512.488281 496.496094 509.117188 C 493.09375 505.734375 490.539062 505.910156 490.246094 504.386719 C 489.726562 501.691406 496.816406 496.59375 503.074219 494.332031 C 496.824219 492.097656 489.769531 487.078125 490.269531 484.390625 C 490.550781 482.867188 493.097656 483.023438 496.472656 479.632812 C 499.851562 476.230469 499.675781 473.671875 501.199219 473.378906 C 503.257812 472.984375 506.722656 477.035156 509.253906 481.761719 L 509.253906 450.695312 C 485.960938 451.757812 467.335938 471.035156 467.335938 494.585938 C 467.335938 518.136719 485.960938 537.417969 509.253906 538.480469 Z M 509.253906 506.894531 " fill-opacity="1" fill-rule="nonzero"/><path fill="#b66a91" d="M 513.304688 450.695312 L 513.304688 481.621094 C 515.792969 476.972656 519.164062 473.023438 521.195312 473.402344 C 522.71875 473.6875 522.5625 476.234375 525.953125 479.605469 C 529.359375 482.988281 531.910156 482.8125 532.207031 484.335938 C 532.726562 487.03125 525.632812 492.128906 519.375 494.390625 C 525.625 496.625 532.683594 501.644531 532.183594 504.332031 C 531.898438 505.855469 529.351562 505.699219 525.980469 509.089844 C 522.597656 512.492188 522.773438 515.046875 521.25 515.339844 C 519.21875 515.734375 515.824219 511.800781 513.304688 507.160156 L 513.304688 538.480469 C 536.597656 537.417969 555.222656 518.140625 555.222656 494.585938 C 555.222656 471.035156 536.597656 451.757812 513.304688 450.695312 " fill-opacity="1" fill-rule="nonzero"/><g transform="matrix(1, 0, 0, 1, 414, 544)"><g clip-path="url(#5d92a4f18d)"><g fill="#b66a91" fill-opacity="1"><g transform="translate(1.718273, 50.156028)"><g><path d="M 19.453125 0.609375 C 15.953125 0.609375 12.929688 -0.160156 10.390625 -1.703125 C 7.859375 -3.253906 5.894531 -5.414062 4.5 -8.1875 C 3.101562 -10.96875 2.40625 -14.195312 2.40625 -17.875 C 2.40625 -21.519531 3.101562 -24.726562 4.5 -27.5 C 5.894531 -30.28125 7.859375 -32.453125 10.390625 -34.015625 C 12.929688 -35.585938 15.953125 -36.375 19.453125 -36.375 C 23.546875 -36.375 26.875 -35.394531 29.4375 -33.4375 C 32.007812 -31.476562 33.65625 -28.742188 34.375 -25.234375 L 29.625 -25.234375 C 29.082031 -27.441406 27.96875 -29.21875 26.28125 -30.5625 C 24.59375 -31.914062 22.316406 -32.59375 19.453125 -32.59375 C 16.898438 -32.59375 14.671875 -32.003906 12.765625 -30.828125 C 10.859375 -29.648438 9.382812 -27.960938 8.34375 -25.765625 C 7.3125 -23.566406 6.796875 -20.9375 6.796875 -17.875 C 6.796875 -14.8125 7.3125 -12.179688 8.34375 -9.984375 C 9.382812 -7.785156 10.859375 -6.097656 12.765625 -4.921875 C 14.671875 -3.753906 16.898438 -3.171875 19.453125 -3.171875 C 22.316406 -3.171875 24.59375 -3.820312 26.28125 -5.125 C 27.96875 -6.4375 29.082031 -8.1875 29.625 -10.375 L 34.375 -10.375 C 33.65625 -6.925781 32.007812 -4.234375 29.4375 -2.296875 C 26.875 -0.359375 23.546875 0.609375 19.453125 0.609375 Z M 19.453125 0.609375 "/></g></g></g><g fill="#b66a91" fill-opacity="1"><g transform="translate(37.624967, 50.156028)"><g><path d="M 1.53125 0 L 14.703125 -35.75 L 19.25 -35.75 L 32.390625 0 L 27.84375 0 L 24.5625 -9.1875 L 9.34375 -9.1875 L 6.03125 0 Z M 10.625 -12.671875 L 23.296875 -12.671875 L 16.953125 -30.34375 Z M 10.625 -12.671875 "/></g></g></g><g fill="#b66a91" fill-opacity="1"><g transform="translate(71.539683, 50.156028)"><g><path d="M 3.78125 0 L 3.78125 -35.75 L 15.328125 -35.75 C 18.117188 -35.75 20.398438 -35.289062 22.171875 -34.375 C 23.941406 -33.457031 25.25 -32.195312 26.09375 -30.59375 C 26.945312 -28.988281 27.375 -27.21875 27.375 -25.28125 C 27.375 -23.03125 26.769531 -21.003906 25.5625 -19.203125 C 24.351562 -17.398438 22.472656 -16.125 19.921875 -15.375 L 27.734375 0 L 22.671875 0 L 15.421875 -14.765625 L 8.078125 -14.765625 L 8.078125 0 Z M 8.078125 -18.125 L 15.015625 -18.125 C 17.773438 -18.125 19.785156 -18.785156 21.046875 -20.109375 C 22.304688 -21.441406 22.9375 -23.148438 22.9375 -25.234375 C 22.9375 -27.347656 22.3125 -29.023438 21.0625 -30.265625 C 19.820312 -31.503906 17.789062 -32.125 14.96875 -32.125 L 8.078125 -32.125 Z M 8.078125 -18.125 "/></g></g></g><g fill="#b66a91" fill-opacity="1"><g transform="translate(101.827979, 50.156028)"><g><path d="M 3.78125 0 L 3.78125 -35.75 L 25.890625 -35.75 L 25.890625 -32.234375 L 8.078125 -32.234375 L 8.078125 -19.765625 L 24.359375 -19.765625 L 24.359375 -16.296875 L 8.078125 -16.296875 L 8.078125 -3.53125 L 25.890625 -3.53125 L 25.890625 0 Z M 3.78125 0 "/></g></g></g><g fill="#b66a91" fill-opacity="1"><g transform="translate(130.635065, 50.156028)"><g><path d="M 3.78125 0 L 3.78125 -35.75 L 25.890625 -35.75 L 25.890625 -32.234375 L 8.078125 -32.234375 L 8.078125 -19.765625 L 24.359375 -19.765625 L 24.359375 -16.296875 L 8.078125 -16.296875 L 8.078125 -3.53125 L 25.890625 -3.53125 L 25.890625 0 Z M 3.78125 0 "/></g></g></g><g fill="#b66a91" fill-opacity="1"><g transform="translate(159.442151, 50.156028)"><g><path d="M 3.78125 0 L 3.78125 -35.75 L 15.328125 -35.75 C 18.117188 -35.75 20.398438 -35.289062 22.171875 -34.375 C 23.941406 -33.457031 25.25 -32.195312 26.09375 -30.59375 C 26.945312 -28.988281 27.375 -27.21875 27.375 -25.28125 C 27.375 -23.03125 26.769531 -21.003906 25.5625 -19.203125 C 24.351562 -17.398438 22.472656 -16.125 19.921875 -15.375 L 27.734375 0 L 22.671875 0 L 15.421875 -14.765625 L 8.078125 -14.765625 L 8.078125 0 Z M 8.078125 -18.125 L 15.015625 -18.125 C 17.773438 -18.125 19.785156 -18.785156 21.046875 -20.109375 C 22.304688 -21.441406 22.9375 -23.148438 22.9375 -25.234375 C 22.9375 -27.347656 22.3125 -29.023438 21.0625 -30.265625 C 19.820312 -31.503906 17.789062 -32.125 14.96875 -32.125 L 8.078125 -32.125 Z M 8.078125 -18.125 "/></g></g></g><g fill="#b66a91" fill-opacity="1"><g transform="translate(189.730447, 50.156028)"><g><path d="M 15.171875 0.609375 C 12.546875 0.609375 10.265625 0.132812 8.328125 -0.8125 C 6.390625 -1.769531 4.890625 -3.097656 3.828125 -4.796875 C 2.773438 -6.503906 2.25 -8.476562 2.25 -10.71875 L 6.75 -10.71875 C 6.75 -9.320312 7.070312 -8.035156 7.71875 -6.859375 C 8.363281 -5.691406 9.304688 -4.757812 10.546875 -4.0625 C 11.785156 -3.363281 13.328125 -3.015625 15.171875 -3.015625 C 17.585938 -3.015625 19.457031 -3.59375 20.78125 -4.75 C 22.113281 -5.90625 22.78125 -7.351562 22.78125 -9.09375 C 22.78125 -10.519531 22.472656 -11.664062 21.859375 -12.53125 C 21.242188 -13.40625 20.414062 -14.113281 19.375 -14.65625 C 18.34375 -15.207031 17.15625 -15.6875 15.8125 -16.09375 C 14.46875 -16.5 13.0625 -16.957031 11.59375 -17.46875 C 8.832031 -18.425781 6.785156 -19.609375 5.453125 -21.015625 C 4.128906 -22.429688 3.46875 -24.28125 3.46875 -26.5625 C 3.4375 -28.46875 3.878906 -30.160156 4.796875 -31.640625 C 5.722656 -33.117188 7.023438 -34.273438 8.703125 -35.109375 C 10.390625 -35.953125 12.390625 -36.375 14.703125 -36.375 C 16.984375 -36.375 18.96875 -35.945312 20.65625 -35.09375 C 22.34375 -34.238281 23.65625 -33.0625 24.59375 -31.5625 C 25.53125 -30.0625 26.015625 -28.359375 26.046875 -26.453125 L 21.5625 -26.453125 C 21.5625 -27.441406 21.300781 -28.421875 20.78125 -29.390625 C 20.269531 -30.359375 19.492188 -31.148438 18.453125 -31.765625 C 17.421875 -32.378906 16.125 -32.6875 14.5625 -32.6875 C 12.613281 -32.71875 11.019531 -32.222656 9.78125 -31.203125 C 8.539062 -30.179688 7.921875 -28.769531 7.921875 -26.96875 C 7.921875 -25.4375 8.351562 -24.257812 9.21875 -23.4375 C 10.082031 -22.625 11.296875 -21.953125 12.859375 -21.421875 C 14.429688 -20.898438 16.238281 -20.296875 18.28125 -19.609375 C 19.988281 -18.992188 21.519531 -18.28125 22.875 -17.46875 C 24.238281 -16.65625 25.300781 -15.597656 26.0625 -14.296875 C 26.832031 -13.003906 27.21875 -11.351562 27.21875 -9.34375 C 27.21875 -7.644531 26.773438 -6.035156 25.890625 -4.515625 C 25.003906 -3.003906 23.664062 -1.769531 21.875 -0.8125 C 20.09375 0.132812 17.859375 0.609375 15.171875 0.609375 Z M 15.171875 0.609375 "/></g></g></g></g></g></svg>