<svg xmlns="http://www.w3.org/2000/svg" fill="none" viewBox="0 0 99 27" height="27" width="99">
<g clip-path="url(#clip0_569_197996)">
<path fill="#B0698D" d="M30.4461 26.4165C25.2813 26.5036 21.0542 22.169 21.0542 17.0013V8.51806C21.0542 8.20451 21.3068 7.95193 21.6203 7.95193H24.5584C24.8719 7.95193 25.1245 8.20451 25.1245 8.51806V17.0565C25.1245 19.8523 27.2932 22.2358 30.089 22.3432C33.0271 22.4536 35.4513 20.0961 35.4513 17.1842V8.51806C35.4513 8.20451 35.7039 7.95193 36.0174 7.95193H38.9555C39.269 7.95193 39.5216 8.20451 39.5216 8.51806V17.1842C39.5158 22.2242 35.4629 26.3323 30.4461 26.4165Z"></path>
<path fill="#B0698D" d="M97.7632 26.4194H92.88C87.7152 26.4194 83.3777 22.1923 83.4648 17.0274C83.549 12.0106 87.6571 7.95483 92.6942 7.95483H97.7632C98.0768 7.95483 98.3294 8.20742 98.3294 8.52097V11.459C98.3294 11.7697 98.0768 12.0252 97.7632 12.0252H92.8219C90.0261 12.0252 87.6426 14.1939 87.5352 16.9897C87.4248 19.9277 89.7823 22.3519 92.6942 22.3519H97.7632C98.0768 22.3519 98.3294 22.6045 98.3294 22.9181V25.8561C98.3265 26.1668 98.0739 26.4194 97.7632 26.4194Z"></path>
<path fill="#B0698D" d="M50.9981 26.4165C46.0423 26.2945 41.9952 21.9542 41.9952 16.9984V0.563224C41.9952 0.252578 42.2477 -0.0029068 42.5613 -0.0029068H45.4994C45.8129 -0.0029068 46.0655 0.249675 46.0655 0.563224V7.95483H51.0387C55.9945 7.95483 60.3348 12.0019 60.4568 16.9548C60.5845 22.23 56.2703 26.5442 50.9981 26.4165ZM46.0655 12.0252V17.0652C46.0655 19.7942 48.1355 22.1458 50.8587 22.3374C53.9942 22.5552 56.5955 19.9568 56.3777 16.8184C56.1861 14.0952 53.8374 12.0252 51.1055 12.0252H46.0655Z"></path>
<path fill="#B0698D" d="M18.0087 26.4194H0.505161C0.168387 26.4194 -0.0929031 26.1261 -0.0551612 25.7923L0.12484 24.1635C0.325162 22.3345 0.931935 20.7406 1.92484 19.4226C3.15871 17.7852 4.36645 16.8474 8.64291 15.2768C13.0732 13.651 13.2677 12.9106 13.8832 12.0368C13.8803 12.031 13.8803 12.031 13.8774 12.0252H0.676453C0.362905 12.0252 0.110323 11.7726 0.110323 11.459V8.52097C0.110323 8.21032 0.362905 7.95483 0.676453 7.95483H18.1248C18.4529 7.95483 18.7142 8.23355 18.6881 8.56161L18.5661 10.1439C18.4413 11.7929 17.9506 13.2648 17.1116 14.5161C15.9155 16.3016 14.551 17.4426 10.0394 19.0945C6.19549 20.5026 5.76581 21.0774 5.16774 21.87C5.05452 22.021 4.95 22.1806 4.85419 22.349H18.0058C18.3194 22.349 18.5719 22.6016 18.5719 22.9152V25.8532C18.5748 26.1668 18.3223 26.4194 18.0087 26.4194Z"></path>
<path fill="#B0698D" d="M71.5181 20.2297C70.9723 21.2632 70.2232 22.1516 69.7732 22.0674C69.4393 22.0064 69.4742 21.449 68.7339 20.7145C67.9906 19.9771 67.4332 20.0148 67.3693 19.6839C67.2561 19.0974 68.8035 17.9826 70.1681 17.4919C68.8035 17.0042 67.2648 15.9097 67.3752 15.3232C67.4361 14.9894 67.9936 15.0242 68.7281 14.2839C69.4655 13.5406 69.4277 12.9832 69.7587 12.9194C70.2087 12.8323 70.9635 13.7177 71.5152 14.7484V7.96935C66.4345 8.20161 62.37 12.4084 62.37 17.5442C62.37 22.68 66.4345 26.8868 71.5152 27.119V20.2297H71.5181Z"></path>
<path fill="#B0698D" d="M72.4036 7.96645V14.7135C72.9465 13.7003 73.681 12.8381 74.1252 12.9194C74.459 12.9803 74.4242 13.5377 75.1645 14.2723C75.9078 15.0097 76.4652 14.9719 76.529 15.3029C76.6423 15.8894 75.0948 17.0042 73.7303 17.4948C75.0948 17.9826 76.6336 19.0771 76.5232 19.6635C76.4623 19.9974 75.9049 19.9626 75.1703 20.7029C74.4329 21.4461 74.4707 22.0035 74.1397 22.0674C73.6955 22.1516 72.9552 21.2952 72.4065 20.2819V27.1161C77.4871 26.8839 81.5516 22.6771 81.5516 17.5413C81.5516 12.4055 77.4842 8.19871 72.4036 7.96645Z"></path>
</g>
<defs>
<clipPath id="clip0_569_197996">
<rect fill="white" height="27" width="98.4194"></rect>
</clipPath>
</defs>
</svg>
